# xmcd
#
# Track frame offsets:
#	200
#	22482
#	41012
#	62087
#	86145
#	104767
#	124015
#	143592
#	160840
#	188525
#
# Disc length: 2754 seconds
#
# Revision: 2
# Processed by: cddbd v1.5.2PL0 Copyright (c) Steve Scherf et al.
# Submitted via: audiograbber 1.83.01
#
DISCID=8b0ac00a
DTITLE=Mystery Slang - Venus Grove
DYEAR=1991
DGENRE=
TTITLE0=They All Ran Like Numbers
TTITLE1=Seven In A Ditch
TTITLE2=Eddie's Dance
TTITLE3=I'm Mad At You
TTITLE4=Along The Midway
TTITLE5=Blind Joe
TTITLE6=The Dark Archer
TTITLE7=Billy Hit The Ten Ball
TTITLE8=Babel Towers
TTITLE9=The Golden Cross
EXTD=
EXTT0=
EXTT1=
EXTT2=
EXTT3=
EXTT4=
EXTT5=
EXTT6=
EXTT7=
EXTT8=
EXTT9=
PLAYORDER=
